# xmcd
#
# Track frame offsets: 
#        150
#        18701
#        40742
#        59244
#
# Disc length: 1079 seconds
#
# Revision: 0
# Processed by: cddbd v1.5.2PL0 Copyright (c) Steve Scherf et al.
# Submitted via: ExactAudioCopy v1.0b3
#
DISCID=35043504
DTITLE=Lia - JUSTITIA
DYEAR=2014
DGENRE=Anime
TTITLE0=JUSTITIA
TTITLE1=Butterfly Dreams
TTITLE2=JUSTITIA (instrumental)
TTITLE3=Butterfly Dreams (instrumental)
EXTD=
EXTT0=
EXTT1=
EXTT2=
EXTT3=
PLAYORDER=
